# xmcd
#
# Track frame offsets:
#	150
#	17481
#	42701
#	61247
#	90301
#	107496
#	131155
#	150722
#	178947
#	199816
#	224524
#	244707
#
# Disc length: 3511 seconds
#
# Revision: 0
# Processed by: cddbd v1.5.2PL0 Copyright (c) Steve Scherf et al.
# Submitted via: dBpowerAMP V4.0
#
DISCID=a60db50c
DTITLE=Chico Banks - Groove songs
DYEAR=1900
DGENRE=
TTITLE0=Sacrifice
TTITLE1=5 long years
TTITLE2=travlin man
TTITLE3=wonder why
TTITLE4=leaving you
TTITLE5=stray kitty kat
TTITLE6=bad luck
TTITLE7=mercy, mercy, mercy
TTITLE8=my babe
TTITLE9=revelation
TTITLE10=big legged woman
TTITLE11=martelll
EXTD=B.L.U.E.S.\nCHICO
EXTT0=
EXTT1=
EXTT2=
EXTT3=
EXTT4=
EXTT5=
EXTT6=
EXTT7=
EXTT8=
EXTT9=
EXTT10=
EXTT11=
PLAYORDER=
